<?xml version="1.0" encoding="utf-8"?>
<!-- Generator: Adobe Illustrator 17.0.0, SVG Export Plug-In . SVG Version: 6.00 Build 0)  -->
<!DOCTYPE svg PUBLIC "-//W3C//DTD SVG 1.1//EN" "http://www.w3.org/Graphics/SVG/1.1/DTD/svg11.dtd">
<svg version="1.1" id="Calque_1" xmlns="http://www.w3.org/2000/svg" xmlns:xlink="http://www.w3.org/1999/xlink" x="0px" y="0px"
	 width="94.667px" height="73px" viewBox="0 0 94.667 73" enable-background="new 0 0 94.667 73" xml:space="preserve">
<g>
	<path fill="#F9EC65" d="M57.03,28.185c-0.486,0-0.741,0.389-0.765,1.165c-0.024,1.264-0.037,2.539-0.037,3.825
		c-0.024,1.506-0.109,2.782-0.255,3.825c-0.195,1.263-0.473,2.429-0.837,3.497c-0.583,1.701-1.603,3.655-3.06,5.865
		c-0.729,1.093-1.482,1.809-2.259,2.149c-0.316,0.146-0.632,0.219-0.948,0.219c-1.214,0-1.821-0.656-1.821-1.968V29.534
		c-0.049-0.898-0.482-1.348-1.297-1.348h-3.038v9.363c0,0.486,0,1.336,0,2.55c0,1.117,0,1.979,0,2.587
		c0,1.069,0.037,1.991,0.109,2.769c0.146,1.773,0.267,2.865,0.365,3.279c0.218,0.85,0.668,1.506,1.348,1.967
		c0.679,0.461,1.444,0.692,2.295,0.692c0.801,0,1.542-0.206,2.222-0.62c2.938-1.87,5.087-4.796,6.448-8.779
		c0.437-1.287,0.656-1.991,0.656-2.112v10.091c0.048,0.947,0.352,1.421,0.91,1.421h3.242V28.185H57.03z"/>
	<path fill="#D5A369" d="M2.544,17.087h4.189c0.607,0,1.107,0.357,1.502,1.07c0.21,0.383,3.354,8.593,9.433,24.633l6.703-23.413
		c0.272-1.411,0.77-2.176,1.495-2.29h2.943L19.118,42.5c-0.453,0.916-0.695,2.519-0.724,4.808c0.029,2.672,0.029,12.847,0,18.837
		c0,0.458-0.061,0.822-0.181,1.087c-0.362,0.916-1.012,1.374-1.947,1.374h-3.26v-21.07c0.12-1.145-0.151-2.575-0.815-4.292
		C11.887,42.481,8.671,33.763,2.544,17.087z"/>
	<path fill="#D5A369" d="M38.9,31.756c1.505,2.21,2.259,4.724,2.259,7.541c0,3.011-0.826,5.732-2.478,8.161
		c-1.87,2.744-4.25,4.116-7.14,4.116c-2.72,0-4.918-1.239-6.594-3.716c-1.506-2.21-2.259-4.724-2.259-7.541
		c0-3.011,0.825-5.731,2.477-8.161c1.87-2.744,4.238-4.116,7.104-4.116C34.989,28.04,37.199,29.279,38.9,31.756z M35.621,32.084
		c-0.948-2.137-2.126-3.23-3.534-3.279c-1.409-0.024-2.642,1.008-3.698,3.096c-1.056,2.09-1.621,4.627-1.694,7.614
		s0.364,5.55,1.312,7.687c0.947,2.137,2.125,3.23,3.534,3.279c1.408,0.024,2.641-1.002,3.698-3.079
		c1.056-2.076,1.621-4.62,1.693-7.632C37.005,36.783,36.568,34.221,35.621,32.084z"/>
	<path fill="#D5A369" d="M57.03,28.185c-0.486,0-0.741,0.389-0.765,1.165c-0.024,1.264-0.037,2.539-0.037,3.825
		c-0.024,1.506-0.109,2.782-0.255,3.825c-0.195,1.263-0.473,2.429-0.837,3.497c-0.583,1.701-1.603,3.655-3.06,5.865
		c-0.729,1.093-1.482,1.809-2.259,2.149c-0.316,0.146-0.632,0.219-0.948,0.219c-1.214,0-1.821-0.656-1.821-1.968V29.534
		c-0.049-0.898-0.482-1.348-1.297-1.348h-3.038v9.363c0,0.486,0,1.336,0,2.55c0,1.117,0,1.979,0,2.587
		c0,1.069,0.037,1.991,0.109,2.769c0.146,1.773,0.267,2.865,0.365,3.279c0.218,0.85,0.668,1.506,1.348,1.967
		c0.679,0.461,1.444,0.692,2.295,0.692c0.801,0,1.542-0.206,2.222-0.62c2.938-1.87,5.087-4.796,6.448-8.779
		c0.437-1.287,0.656-1.991,0.656-2.112v10.091c0.048,0.947,0.352,1.421,0.91,1.421h3.242V28.185H57.03z"/>
	<path fill="#F9EC65" d="M67.975,17.173h3.517c0.943,0,1.443,1.006,1.501,3.016v38.549c0,2.934,0.702,4.402,2.108,4.402
		c0.366,0,0.731-0.163,1.097-0.49c0.899-0.76,1.771-2.362,2.614-4.808c1.686-4.944,2.867-9.317,3.542-13.122
		c0.421-2.389,0.983-9.369,1.209-12.195c0.169-2.335-0.028,3.37,0,0c0-2.878,0.07-9.918,0.098-12.745
		c0.027-1.737,0.323-2.607,0.885-2.607h3.795v51.916h-3.752c-0.647,0-0.998-1.059-1.054-3.178V43.336
		c0,0.272-0.254,1.848-0.759,4.726c-1.574,8.912-4.062,15.459-7.463,19.641c-0.788,0.925-1.645,1.386-2.572,1.386
		c-0.985,0-1.87-0.516-2.656-1.548c-0.788-1.032-1.307-2.498-1.56-4.401c-0.113-0.925-0.253-3.369-0.422-7.335
		c-0.084-1.739-0.126-3.803-0.126-6.194c0-1.359,0-3.287,0-5.787c0-2.716,0-4.617,0-5.705V17.173H67.975z"/>
	<path fill="none" d="M75.101,63.14c0.366,0,0.731-0.163,1.097-0.49c0.439-0.371,0.872-0.947,1.298-1.72h-4.321
		C73.465,62.401,74.106,63.14,75.101,63.14z"/>
	<path fill="none" d="M82.775,48.062c-0.404,2.289-0.87,4.42-1.395,6.397l2.154,0.004V43.336
		C83.534,43.608,83.28,45.183,82.775,48.062z"/>
	<path fill="#F9EC65" d="M83.378,32.71C83.35,36.08,83.547,30.375,83.378,32.71L83.378,32.71z"/>
	<path fill="#D5A369" d="M82.775,48.062c0.506-2.878,0.759-4.454,0.759-4.726v11.127l4.806,0.01v-37.3h-3.795
		c-0.563,0-0.858,0.87-0.885,2.607c-0.028,2.827-0.282,10.051-0.282,12.929c0.169-2.335-0.028,3.37,0,0
		c-0.226,2.825-0.603,9.621-1.025,12.011c-0.516,2.911-1.331,6.158-2.44,9.735l1.466,0.003
		C81.905,52.481,82.37,50.351,82.775,48.062z"/>
	<path fill="#D5A369" d="M72.993,20.189c-0.057-2.01-0.558-3.016-1.501-3.016h-3.517v20.946c0,1.088,0,2.989,0,5.705
		c0,2.5,0,4.428,0,5.787c0,1.79,0.024,3.396,0.071,4.82l4.947,0.01V20.189z"/>
	<path fill="#D5A369" d="M83.534,65.911c0.056,2.119,0.407,3.178,1.054,3.178h3.752V60.93h-4.806V65.911z"/>
	<path fill="#D5A369" d="M76.197,62.65c-0.366,0.327-0.731,0.49-1.097,0.49c-0.995,0-1.636-0.739-1.926-2.21h-4.822
		c0.063,1.05,0.12,1.789,0.171,2.21c0.253,1.902,0.773,3.369,1.56,4.401c0.786,1.032,1.671,1.548,2.656,1.548
		c0.927,0,1.784-0.462,2.572-1.386c1.474-1.813,2.776-4.072,3.907-6.773h-1.724C77.069,61.703,76.636,62.279,76.197,62.65z"/>
	<path fill="#F9D044" d="M72.993,54.441l-4.947-0.01L42.578,54.38l1.105-1.05c0.848-0.827,1.982-1.96,3.402-3.391
		c1.42-1.434,2.946-3.074,4.578-4.921s3.274-3.87,4.927-6.069c1.653-2.196,3.157-4.522,4.515-6.974
		c1.357-2.452,2.458-5.016,3.306-7.692c0.848-2.675,1.272-5.351,1.272-8.026c0-4.267-0.848-7.771-2.543-10.51
		c-1.695-2.737-4.112-4.109-7.248-4.109c-1.908,0-3.647,0.558-5.214,1.672c-1.569,1.116-2.936,2.469-4.102,4.062
		c-1.165,1.591-2.129,3.263-2.893,5.015c-0.763,1.753-1.314,3.297-1.653,4.635c-0.17,0.511-0.17,0.892,0,1.146l1.335,0.956
		c0.169,0.128,0.424-0.224,0.763-1.052c0.296-0.699,0.7-1.527,1.209-2.484c0.509-0.954,1.113-1.864,1.812-2.722
		c0.7-0.86,1.463-1.576,2.289-2.151c0.826-0.573,1.705-0.859,2.638-0.859c0.975,0,1.802,0.271,2.48,0.812
		c0.678,0.543,1.218,1.259,1.622,2.149c0.401,0.892,0.699,1.881,0.89,2.963c0.19,1.084,0.285,2.134,0.285,3.153
		c-0.043,2.422-0.435,4.889-1.175,7.404c-0.743,2.518-1.728,5.033-2.957,7.549c-1.23,2.518-2.639,4.985-4.228,7.404
		c-1.589,2.422-3.243,4.746-4.96,6.976c-1.717,2.23-7.361,8.179-8.845,9.706c-0.678,0.703-1.016,0.849-1.016,1.676
		c0,0.438,0.202,0.902,0.419,1.281h33.761h4.822h4.321c0.446-0.81,0.885-1.837,1.316-3.088c0.396-1.161,0.762-2.288,1.102-3.387
		L72.993,54.441z"/>
	<path fill="#F9D044" d="M92.105,55.098c-0.255-0.413-0.826-0.622-1.717-0.622l-2.048-0.004l-4.806-0.01l-2.154-0.004
		c-0.633,2.384-1.353,4.542-2.161,6.472h4.315h4.806h1.529c0.788-1.377,2.215-3.325,2.361-4.017
		C92.401,56.118,92.359,55.513,92.105,55.098z"/>
	<path fill="#D5A369" d="M79.914,54.455c-0.34,1.098-0.706,2.225-1.102,3.387c-0.431,1.251-0.87,2.278-1.316,3.088h1.724
		c0.808-1.93,1.528-4.088,2.161-6.472L79.914,54.455z"/>
	<path fill="#D5A369" d="M55.5,41.992c0.437-1.287,0.656-1.991,0.656-2.112v10.091c0.048,0.947,0.352,1.421,0.91,1.421h3.242V28.185
		h-3.279c-0.486,0-0.741,0.389-0.765,1.165c-0.024,1.264-0.037,2.539-0.037,3.825c-0.024,1.506-0.109,2.782-0.255,3.825
		c-0.195,1.263-0.983,3.723-1.347,4.791"/>
</g>
</svg>
