<?xml version="1.0" encoding="utf-8"?>
<!-- Generator: Adobe Illustrator 17.0.0, SVG Export Plug-In . SVG Version: 6.00 Build 0)  -->
<!DOCTYPE svg PUBLIC "-//W3C//DTD SVG 1.1//EN" "http://www.w3.org/Graphics/SVG/1.1/DTD/svg11.dtd">
<svg version="1.1" id="Calque_1" xmlns="http://www.w3.org/2000/svg" xmlns:xlink="http://www.w3.org/1999/xlink" x="0px" y="0px"
	 width="153.494px" height="44.452px" viewBox="0 0 153.494 44.452" enable-background="new 0 0 153.494 44.452"
	 xml:space="preserve">
<polygon fill="#F2EEE7" points="128.501,42.548 2.073,42.548 2.073,2.157 128.082,2.157 152.084,22.142 "/>
<rect x="89.476" y="5.43" fill="none" stroke="#D5A369" stroke-width="0.432" stroke-miterlimit="10" width="33.845" height="33.845"/>
<g>
	<polygon fill="#F9D044" points="96.801,11.904 94.941,11.904 94.941,12.834 94.941,33.966 94.941,34.523 96.801,31.548 	"/>
	<polygon fill="#F9D044" points="95.366,34.95 95.924,34.95 117.057,34.95 117.987,34.95 117.987,33.09 98.342,33.09 	"/>
	<path fill="#F9D044" d="M117.878,11.927c-0.66-0.66-1.498-1.066-2.359-1.144c-0.782-0.071-1.504,0.138-2.056,0.591l-1.453,1.393
		l-10.136,10.047l-3.901,8.995l8.864-3.766l10.617-10.702l0.968-0.99C119.403,15.164,119.185,13.235,117.878,11.927z
		 M112.602,12.912l0.991,0.242L103.53,23.219l-0.991-0.242L112.602,12.912z M102.029,29.519c-0.186-0.369-0.429-0.716-0.737-1.024
		c-0.302-0.301-0.639-0.54-0.998-0.724l1.884-4.345l1.299,0.317l2.491,2.491l0.278,1.491L102.029,29.519z M106.396,25.922
		l-2.416-2.416l10.127-10.127l2.368,2.368l0.021,0.076L106.396,25.922z M118.239,15.684l-0.086-0.311
		c-0.135-0.488-0.521-1.15-0.879-1.508l-1.422-1.422c-0.359-0.359-1.02-0.733-1.504-0.852l-0.183-0.044
		c0.381-0.195,0.823-0.287,1.306-0.244c0.74,0.066,1.463,0.42,2.037,0.994C118.506,13.294,118.772,14.695,118.239,15.684z"/>
</g>
<g>
	<path fill="#D5A369" d="M15.759,17.959v11.134h-2.531l-0.003-7.517l-1.008,7.517h-1.795l-1.062-7.345l-0.003,7.345H6.825V17.959
		h3.747c0.111,0.669,0.226,1.458,0.343,2.367l0.411,2.833l0.666-5.2H15.759z"/>
	<path fill="#D5A369" d="M23.124,23.172v2.234c0,0.821-0.041,1.423-0.124,1.806s-0.259,0.74-0.53,1.073
		c-0.271,0.332-0.618,0.577-1.042,0.735c-0.424,0.158-0.911,0.237-1.461,0.237c-0.614,0-1.134-0.067-1.561-0.203
		c-0.426-0.135-0.757-0.339-0.994-0.611c-0.236-0.273-0.405-0.604-0.505-0.991c-0.101-0.387-0.151-0.968-0.151-1.743v-2.338
		c0-0.848,0.092-1.511,0.275-1.988c0.184-0.477,0.514-0.859,0.991-1.148c0.477-0.289,1.086-0.433,1.829-0.433
		c0.624,0,1.159,0.093,1.606,0.278c0.447,0.186,0.792,0.428,1.035,0.726c0.243,0.298,0.41,0.605,0.499,0.922
		C23.08,22.044,23.124,22.525,23.124,23.172z M20.346,22.484c0-0.468-0.025-0.762-0.076-0.884s-0.158-0.182-0.323-0.182
		s-0.275,0.061-0.33,0.182c-0.055,0.122-0.083,0.416-0.083,0.884v4.12c0,0.431,0.028,0.712,0.083,0.842
		c0.055,0.131,0.163,0.196,0.323,0.196c0.165,0,0.274-0.06,0.327-0.179s0.079-0.376,0.079-0.771V22.484z"/>
	<path fill="#D5A369" d="M26.865,19.967l-0.048,0.841c0.202-0.335,0.448-0.587,0.739-0.754s0.627-0.251,1.008-0.251
		c0.477,0,0.866,0.112,1.169,0.337s0.498,0.508,0.584,0.849c0.087,0.342,0.131,0.912,0.131,1.709v6.396H27.67v-6.32
		c0-0.628-0.021-1.011-0.062-1.148c-0.042-0.137-0.156-0.206-0.344-0.206c-0.197,0-0.321,0.079-0.372,0.237
		s-0.076,0.581-0.076,1.269v6.169h-2.778v-9.126H26.865z"/>
	<path fill="#D5A369" d="M36.37,23.502h-2.606V22.89c0-0.706,0.081-1.25,0.244-1.633c0.163-0.383,0.489-0.721,0.98-1.015
		c0.49-0.293,1.127-0.44,1.912-0.44c0.94,0,1.648,0.166,2.125,0.499s0.764,0.741,0.86,1.224c0.096,0.484,0.144,1.48,0.144,2.988
		v4.58h-2.703V28.28c-0.169,0.326-0.388,0.571-0.657,0.734c-0.268,0.162-0.588,0.244-0.959,0.244c-0.486,0-0.932-0.137-1.337-0.409
		s-0.608-0.87-0.608-1.791v-0.75c0-0.684,0.107-1.148,0.323-1.396c0.215-0.247,0.75-0.536,1.602-0.866
		c0.913-0.357,1.401-0.599,1.465-0.722c0.064-0.124,0.096-0.377,0.096-0.757c0-0.477-0.035-0.788-0.106-0.932
		c-0.071-0.144-0.189-0.216-0.354-0.216c-0.188,0-0.305,0.061-0.351,0.182s-0.068,0.437-0.068,0.946V23.502z M37.249,24.753
		c-0.445,0.326-0.703,0.599-0.773,0.818c-0.071,0.221-0.106,0.537-0.106,0.949c0,0.473,0.031,0.777,0.093,0.915
		c0.062,0.138,0.185,0.206,0.368,0.206c0.174,0,0.288-0.054,0.34-0.161c0.053-0.108,0.079-0.392,0.079-0.85V24.753z"/>
	<path fill="#D5A369" d="M43.81,19.967l-0.048,0.841c0.202-0.335,0.448-0.587,0.739-0.754s0.627-0.251,1.008-0.251
		c0.477,0,0.866,0.112,1.169,0.337s0.498,0.508,0.584,0.849c0.087,0.342,0.131,0.912,0.131,1.709v6.396h-2.778v-6.32
		c0-0.628-0.021-1.011-0.062-1.148c-0.042-0.137-0.156-0.206-0.344-0.206c-0.197,0-0.321,0.079-0.372,0.237
		s-0.076,0.581-0.076,1.269v6.169h-2.778v-9.126H43.81z"/>
	<path fill="#D5A369" d="M51.176,19.967l-0.048,0.841c0.202-0.335,0.448-0.587,0.739-0.754s0.627-0.251,1.008-0.251
		c0.477,0,0.866,0.112,1.169,0.337s0.498,0.508,0.584,0.849c0.087,0.342,0.131,0.912,0.131,1.709v6.396h-2.778v-6.32
		c0-0.628-0.021-1.011-0.062-1.148c-0.042-0.137-0.156-0.206-0.344-0.206c-0.197,0-0.321,0.079-0.372,0.237
		s-0.076,0.581-0.076,1.269v6.169H48.35v-9.126H51.176z"/>
	<path fill="#D5A369" d="M62,23.172v2.234c0,0.821-0.041,1.423-0.124,1.806s-0.259,0.74-0.53,1.073
		c-0.271,0.332-0.618,0.577-1.042,0.735c-0.424,0.158-0.911,0.237-1.461,0.237c-0.614,0-1.134-0.067-1.561-0.203
		c-0.426-0.135-0.757-0.339-0.994-0.611c-0.236-0.273-0.405-0.604-0.505-0.991c-0.101-0.387-0.151-0.968-0.151-1.743v-2.338
		c0-0.848,0.092-1.511,0.275-1.988c0.184-0.477,0.514-0.859,0.991-1.148c0.477-0.289,1.086-0.433,1.829-0.433
		c0.624,0,1.159,0.093,1.606,0.278c0.447,0.186,0.792,0.428,1.035,0.726c0.243,0.298,0.41,0.605,0.499,0.922
		C61.956,22.044,62,22.525,62,23.172z M59.222,22.484c0-0.468-0.025-0.762-0.076-0.884s-0.158-0.182-0.323-0.182
		s-0.275,0.061-0.33,0.182c-0.055,0.122-0.083,0.416-0.083,0.884v4.12c0,0.431,0.028,0.712,0.083,0.842
		c0.055,0.131,0.163,0.196,0.323,0.196c0.165,0,0.274-0.06,0.327-0.179s0.079-0.376,0.079-0.771V22.484z"/>
	<path fill="#D5A369" d="M65.742,19.967l-0.048,0.841c0.202-0.335,0.448-0.587,0.739-0.754s0.627-0.251,1.008-0.251
		c0.477,0,0.866,0.112,1.169,0.337s0.498,0.508,0.584,0.849c0.087,0.342,0.131,0.912,0.131,1.709v6.396h-2.778v-6.32
		c0-0.628-0.021-1.011-0.062-1.148c-0.042-0.137-0.156-0.206-0.344-0.206c-0.197,0-0.321,0.079-0.372,0.237
		s-0.076,0.581-0.076,1.269v6.169h-2.778v-9.126H65.742z"/>
	<path fill="#D5A369" d="M76.422,23.413h-2.62V22.36c0-0.367-0.03-0.615-0.089-0.746c-0.06-0.13-0.169-0.196-0.33-0.196
		s-0.268,0.057-0.323,0.172c-0.055,0.115-0.083,0.371-0.083,0.77v4.305c0,0.326,0.042,0.57,0.124,0.732
		c0.083,0.163,0.204,0.244,0.364,0.244c0.188,0,0.315-0.085,0.382-0.254c0.066-0.17,0.1-0.491,0.1-0.963v-1.087h2.476
		c-0.004,0.729-0.031,1.275-0.079,1.641c-0.048,0.364-0.202,0.737-0.461,1.12c-0.259,0.383-0.597,0.672-1.015,0.867
		c-0.417,0.194-0.933,0.292-1.547,0.292c-0.784,0-1.405-0.134-1.863-0.402c-0.459-0.269-0.783-0.645-0.973-1.128
		c-0.19-0.483-0.286-1.17-0.286-2.06v-2.593c0-0.775,0.078-1.359,0.234-1.753c0.156-0.395,0.488-0.747,0.997-1.056
		c0.509-0.31,1.128-0.464,1.857-0.464c0.724,0,1.343,0.154,1.857,0.461c0.513,0.307,0.855,0.694,1.024,1.162
		C76.337,21.893,76.422,22.556,76.422,23.413z"/>
	<path fill="#D5A369" d="M83.54,24.692h-3.597v1.974c0,0.413,0.029,0.679,0.089,0.798s0.175,0.179,0.344,0.179
		c0.211,0,0.353-0.079,0.423-0.237c0.071-0.158,0.106-0.464,0.106-0.918v-1.203h2.635v0.674c0,0.563-0.036,0.997-0.106,1.3
		c-0.071,0.303-0.237,0.626-0.499,0.97S82.342,28.829,81.94,29s-0.904,0.258-1.509,0.258c-0.587,0-1.105-0.085-1.555-0.255
		c-0.449-0.169-0.799-0.402-1.049-0.697c-0.25-0.296-0.423-0.621-0.519-0.977c-0.097-0.355-0.145-0.872-0.145-1.551v-2.662
		c0-0.797,0.108-1.427,0.323-1.888c0.216-0.46,0.569-0.813,1.06-1.059c0.49-0.245,1.055-0.368,1.691-0.368
		c0.779,0,1.423,0.148,1.93,0.443c0.506,0.296,0.861,0.688,1.065,1.176s0.307,1.175,0.307,2.06V24.692z M80.755,23.206v-0.667
		c0-0.472-0.025-0.777-0.076-0.915c-0.051-0.137-0.153-0.206-0.31-0.206c-0.192,0-0.312,0.058-0.357,0.175
		c-0.046,0.117-0.068,0.432-0.068,0.946v0.667H80.755z"/>
</g>
</svg>
