<?xml version="1.0" encoding="utf-8"?>
<!-- Generator: Adobe Illustrator 17.0.0, SVG Export Plug-In . SVG Version: 6.00 Build 0)  -->
<!DOCTYPE svg PUBLIC "-//W3C//DTD SVG 1.1//EN" "http://www.w3.org/Graphics/SVG/1.1/DTD/svg11.dtd">
<svg version="1.1" id="Calque_1" xmlns="http://www.w3.org/2000/svg" xmlns:xlink="http://www.w3.org/1999/xlink" x="0px" y="0px"
	 width="153.494px" height="44.452px" viewBox="0 0 153.494 44.452" enable-background="new 0 0 153.494 44.452"
	 xml:space="preserve">
<polygon fill="#F2EEE7" points="128.501,42.548 2.073,42.548 2.073,2.157 128.082,2.157 152.084,22.142 "/>
<rect x="89.476" y="5.43" fill="none" stroke="#D5A369" stroke-width="0.432" stroke-miterlimit="10" width="33.845" height="33.845"/>
<g>
	<path fill="#D5A369" d="M20.05,20.72h-3.276v-2.189c0-0.637-0.035-1.034-0.105-1.192c-0.07-0.157-0.225-0.236-0.463-0.236
		c-0.27,0-0.441,0.096-0.513,0.288c-0.073,0.191-0.109,0.606-0.109,1.245v5.852c0,0.612,0.037,1.012,0.109,1.199
		c0.072,0.187,0.236,0.279,0.49,0.279c0.244,0,0.403-0.093,0.479-0.28s0.113-0.627,0.113-1.318v-1.584h3.276v0.491
		c0,1.304-0.092,2.229-0.276,2.774s-0.591,1.023-1.222,1.435c-0.63,0.41-1.407,0.615-2.331,0.615c-0.959,0-1.751-0.174-2.374-0.521
		s-1.035-0.829-1.237-1.443c-0.202-0.615-0.303-1.54-0.303-2.774v-3.682c0-0.907,0.031-1.588,0.093-2.042
		c0.062-0.454,0.248-0.892,0.556-1.312c0.309-0.421,0.737-0.751,1.284-0.992s1.176-0.362,1.887-0.362
		c0.965,0,1.761,0.187,2.389,0.56s1.04,0.839,1.237,1.396s0.296,1.423,0.296,2.6V20.72z"/>
	<path fill="#D5A369" d="M28.245,21.133v2.529c0,0.929-0.047,1.609-0.14,2.042c-0.093,0.434-0.293,0.839-0.599,1.215
		s-0.699,0.653-1.179,0.832c-0.48,0.18-1.031,0.269-1.654,0.269c-0.695,0-1.284-0.076-1.767-0.229
		c-0.482-0.152-0.857-0.384-1.125-0.692s-0.458-0.683-0.572-1.121c-0.114-0.438-0.171-1.096-0.171-1.973v-2.646
		c0-0.96,0.104-1.71,0.312-2.249c0.208-0.54,0.581-0.973,1.121-1.3s1.229-0.49,2.07-0.49c0.706,0,1.312,0.104,1.817,0.315
		c0.506,0.21,0.896,0.483,1.171,0.82c0.275,0.338,0.463,0.686,0.564,1.043C28.194,19.857,28.245,20.402,28.245,21.133z
		 M25.101,20.355c0-0.529-0.029-0.862-0.085-1c-0.057-0.138-0.179-0.206-0.366-0.206c-0.187,0-0.312,0.068-0.374,0.206
		c-0.062,0.138-0.094,0.471-0.094,1v4.661c0,0.488,0.031,0.806,0.094,0.953c0.062,0.148,0.184,0.223,0.366,0.223
		c0.187,0,0.31-0.067,0.37-0.203c0.06-0.135,0.089-0.425,0.089-0.871V20.355z"/>
	<path fill="#D5A369" d="M32.478,17.506l-0.054,0.951c0.228-0.379,0.507-0.664,0.836-0.854c0.329-0.189,0.709-0.284,1.14-0.284
		c0.54,0,0.98,0.127,1.323,0.381c0.343,0.255,0.563,0.575,0.662,0.962c0.099,0.386,0.148,1.03,0.148,1.934v7.237h-3.144v-7.152
		c0-0.71-0.023-1.144-0.07-1.299c-0.046-0.156-0.176-0.233-0.389-0.233c-0.223,0-0.363,0.089-0.42,0.269
		c-0.057,0.179-0.085,0.657-0.085,1.436v6.98H29.28V17.506H32.478z"/>
	<path fill="#D5A369" d="M40.813,17.506l-0.054,0.951c0.228-0.379,0.507-0.664,0.836-0.854c0.329-0.189,0.709-0.284,1.14-0.284
		c0.54,0,0.98,0.127,1.323,0.381c0.343,0.255,0.563,0.575,0.662,0.962c0.099,0.386,0.148,1.03,0.148,1.934v7.237h-3.144v-7.152
		c0-0.71-0.023-1.144-0.07-1.299c-0.046-0.156-0.176-0.233-0.389-0.233c-0.223,0-0.363,0.089-0.42,0.269
		c-0.057,0.179-0.085,0.657-0.085,1.436v6.98h-3.144V17.506H40.813z"/>
	<path fill="#D5A369" d="M53.07,22.853H49v2.233c0,0.467,0.034,0.768,0.101,0.902c0.067,0.136,0.197,0.203,0.389,0.203
		c0.239,0,0.398-0.09,0.479-0.269c0.08-0.18,0.121-0.525,0.121-1.039v-1.362h2.98v0.763c0,0.639-0.041,1.129-0.121,1.471
		c-0.081,0.343-0.269,0.708-0.564,1.098c-0.295,0.389-0.67,0.681-1.125,0.875c-0.454,0.195-1.023,0.292-1.708,0.292
		c-0.664,0-1.25-0.096-1.759-0.288c-0.509-0.191-0.904-0.455-1.187-0.789c-0.283-0.335-0.479-0.703-0.587-1.105
		s-0.164-0.987-0.164-1.755v-3.012c0-0.902,0.122-1.615,0.366-2.137c0.244-0.521,0.644-0.921,1.199-1.198s1.193-0.416,1.915-0.416
		c0.882,0,1.609,0.167,2.183,0.502s0.976,0.778,1.207,1.331c0.23,0.552,0.346,1.329,0.346,2.33V22.853z M49.918,21.172v-0.755
		c0-0.535-0.029-0.88-0.085-1.035c-0.057-0.156-0.174-0.233-0.351-0.233c-0.218,0-0.353,0.065-0.404,0.198
		C49.026,19.479,49,19.836,49,20.417v0.755H49.918z"/>
	<path fill="#D5A369" d="M60.331,17.506l-1.253,4.934l1.518,5.394h-3.057c-0.303-1.362-0.534-2.535-0.69-3.518
		c-0.209,1.228-0.437,2.399-0.683,3.518h-2.628l1.354-5.394l-1.354-4.934h2.628c0.424,2.111,0.651,3.31,0.683,3.596
		c0.303-1.763,0.534-2.961,0.69-3.596H60.331z"/>
	<path fill="#D5A369" d="M64.246,15.234v1.643h-3.237v-1.643H64.246z M64.246,17.506v10.327h-3.237V17.506H64.246z"/>
	<path fill="#D5A369" d="M72.487,21.133v2.529c0,0.929-0.047,1.609-0.14,2.042c-0.093,0.434-0.293,0.839-0.599,1.215
		s-0.699,0.653-1.179,0.832c-0.48,0.18-1.031,0.269-1.654,0.269c-0.695,0-1.284-0.076-1.767-0.229
		c-0.482-0.152-0.857-0.384-1.125-0.692s-0.458-0.683-0.572-1.121c-0.114-0.438-0.171-1.096-0.171-1.973v-2.646
		c0-0.96,0.104-1.71,0.312-2.249c0.208-0.54,0.581-0.973,1.121-1.3s1.229-0.49,2.07-0.49c0.706,0,1.312,0.104,1.817,0.315
		c0.506,0.21,0.896,0.483,1.171,0.82c0.275,0.338,0.463,0.686,0.564,1.043C72.436,19.857,72.487,20.402,72.487,21.133z
		 M69.343,20.355c0-0.529-0.029-0.862-0.085-1c-0.057-0.138-0.179-0.206-0.366-0.206c-0.187,0-0.312,0.068-0.374,0.206
		c-0.062,0.138-0.094,0.471-0.094,1v4.661c0,0.488,0.031,0.806,0.094,0.953c0.062,0.148,0.184,0.223,0.366,0.223
		c0.187,0,0.31-0.067,0.37-0.203c0.06-0.135,0.089-0.425,0.089-0.871V20.355z"/>
	<path fill="#D5A369" d="M76.72,17.506l-0.054,0.951c0.228-0.379,0.507-0.664,0.837-0.854c0.328-0.189,0.709-0.284,1.14-0.284
		c0.54,0,0.98,0.127,1.323,0.381c0.342,0.255,0.562,0.575,0.661,0.962c0.099,0.386,0.147,1.03,0.147,1.934v7.237h-3.144v-7.152
		c0-0.71-0.023-1.144-0.07-1.299c-0.046-0.156-0.177-0.233-0.389-0.233c-0.223,0-0.363,0.089-0.42,0.269
		c-0.057,0.179-0.085,0.657-0.085,1.436v6.98h-3.144V17.506H76.72z"/>
</g>
<g>
	<path fill="#F9D044" d="M95.307,20.342c-0.589,0-0.589,0-0.589,0c-0.634,0.059-1.152,0.94-1.152,1.958v0.785
		c0,1.019,0.516,1.784,1.147,1.7c0,0,0,0,0.594,0c5.641,0,10.23,4.59,10.23,10.229c0,0.596,0,0.596,0,0.596
		c-0.082,0.63,0.681,1.147,1.701,1.147h0.786c1.019,0,1.901-0.52,1.959-1.151c0,0,0,0,0-0.592
		C109.982,26.925,103.399,20.342,95.307,20.342z"/>
	<circle fill="#F9D044" cx="97.269" cy="33.054" r="3.704"/>
	<path fill="#F9D044" d="M95.307,11.258c-0.103,0-0.209,0-0.311,0.003c-0.481,0.008-0.481,0.008-0.481,0.008
		c-0.522,0.033-0.949,0.894-0.949,1.912v0.754c0,1.017,0.442,1.818,0.983,1.778c0,0,0,0,0.499-0.008
		c0.086-0.001,0.172-0.001,0.259-0.001c10.649,0,19.313,8.663,19.313,19.31c0,0.18-0.003,0.357-0.01,0.534
		c-0.011,0.405-0.011,0.405-0.011,0.405c-0.034,0.443,0.771,0.804,1.789,0.804h0.753c1.018,0,1.877-0.363,1.905-0.807
		c0,0,0,0,0.01-0.408c0.004-0.175,0.008-0.351,0.008-0.529C119.066,21.915,108.408,11.258,95.307,11.258z"/>
</g>
</svg>
