<?xml version="1.0" encoding="utf-8"?>
<!-- Generator: Adobe Illustrator 17.0.0, SVG Export Plug-In . SVG Version: 6.00 Build 0)  -->
<!DOCTYPE svg PUBLIC "-//W3C//DTD SVG 1.1//EN" "http://www.w3.org/Graphics/SVG/1.1/DTD/svg11.dtd">
<svg version="1.1" id="Calque_1" xmlns="http://www.w3.org/2000/svg" xmlns:xlink="http://www.w3.org/1999/xlink" x="0px" y="0px"
	 width="153.494px" height="44.452px" viewBox="0 0 153.494 44.452" enable-background="new 0 0 153.494 44.452"
	 xml:space="preserve">
<polygon fill="#F2EEE7" points="128.501,42.548 2.073,42.548 2.073,2.157 128.082,2.157 152.084,22.142 "/>
<rect x="89.476" y="5.43" fill="none" stroke="#D5A369" stroke-width="0.432" stroke-miterlimit="10" width="33.845" height="33.845"/>
<path fill="#F9D044" d="M118.638,16.109c-0.845-3.011-2.825-5.215-5.725-6.375c-4.176-1.671-9.31-1.142-13.082,1.343
	c-0.928,0.612-1.758,1.332-2.49,2.144c-2.336,2.592-3.65,6.145-3.754,10.306c-0.12,4.807,1.889,8.606,5.659,10.698
	c1.858,1.03,4.023,1.542,6.178,1.542c1.992,0,3.977-0.438,5.704-1.304c0.382-0.192,0.752-0.403,1.106-0.636l-1.517-2.305
	c-2.824,1.861-7.085,1.981-10.133,0.29c-2-1.11-4.359-3.436-4.239-8.218c0.1-4.029,1.407-6.682,2.934-8.415
	c0.675-0.767,1.394-1.355,2.07-1.801c3.041-2.002,7.177-2.427,10.54-1.085c2.103,0.842,3.481,2.376,4.093,4.559
	c0.859,3.064-0.045,6.474-1.383,8.257c-0.353,0.472-0.708,0.833-1.032,1.065c-0.358,0.256-0.68,0.355-0.924,0.26
	c-0.369-0.14-0.606-0.646-0.585-0.919c0.03-0.364,0.12-1.008,0.245-1.793c0.032-0.091,0.061-0.181,0.091-0.273l-0.045-0.015
	c0.343-2.106,0.888-5.033,1.141-6.35l0.207-1.073l-0.997-0.446c-0.221-0.099-5.461-2.372-10.547,1.774
	c-0.403,0.329-0.767,0.688-1.093,1.071c-1.497,1.756-2.154,4.013-1.732,6.174c0.405,2.08,1.783,3.67,3.686,4.256
	c2.716,0.833,5.086,0.105,6.815-1.408c0.423,0.713,1.07,1.292,1.842,1.583c0.649,0.244,2.144,0.541,3.851-0.877
	c0.419-0.347,0.849-0.795,1.283-1.374C118.872,24.012,119.625,19.63,118.638,16.109z M109.624,23.012
	c-0.344,0.873-0.959,1.875-1.862,2.57c-0.971,0.747-2.275,1.137-3.937,0.623c-0.927-0.285-1.58-1.067-1.79-2.146
	c-0.244-1.251,0.147-2.616,1.012-3.715c0.246-0.312,0.528-0.604,0.847-0.863c1.814-1.479,3.639-1.866,5.055-1.866
	c0.626,0,1.172,0.076,1.601,0.166C110.303,19.111,109.904,21.276,109.624,23.012z"/>
<text transform="matrix(1 0 0 1 15.247 27.4097)" fill="#D5A369" font-family="'Impact'" font-size="17.7883">Contact</text>
</svg>
