<?xml version="1.0" encoding="utf-8"?>
<!-- Generator: Adobe Illustrator 17.0.0, SVG Export Plug-In . SVG Version: 6.00 Build 0)  -->
<!DOCTYPE svg PUBLIC "-//W3C//DTD SVG 1.1//EN" "http://www.w3.org/Graphics/SVG/1.1/DTD/svg11.dtd">
<svg version="1.1" id="Calque_1" xmlns="http://www.w3.org/2000/svg" xmlns:xlink="http://www.w3.org/1999/xlink" x="0px" y="0px"
	 width="153.494px" height="44.452px" viewBox="0 0 153.494 44.452" enable-background="new 0 0 153.494 44.452"
	 xml:space="preserve">
<polygon fill="#F2EEE7" points="128.501,42.548 2.073,42.548 2.073,2.157 128.082,2.157 152.084,22.142 "/>
<rect x="89.476" y="5.43" fill="none" stroke="#D5A369" stroke-width="0.432" stroke-miterlimit="10" width="33.845" height="33.845"/>
<g>
	<path fill="#D5A369" d="M14.176,15.215v12.6H10.9v-12.6H14.176z"/>
	<path fill="#D5A369" d="M18.597,17.487l-0.055,0.952c0.228-0.379,0.507-0.664,0.836-0.854c0.33-0.189,0.709-0.285,1.14-0.285
		c0.54,0,0.981,0.127,1.323,0.381c0.342,0.254,0.563,0.575,0.662,0.961s0.148,1.031,0.148,1.934v7.238h-3.145v-7.152
		c0-0.711-0.023-1.144-0.07-1.3c-0.047-0.155-0.176-0.233-0.389-0.233c-0.223,0-0.363,0.089-0.42,0.269s-0.085,0.658-0.085,1.436
		v6.981h-3.144V17.487H18.597z"/>
	<path fill="#D5A369" d="M30.154,20.787h-2.786v-0.56c0-0.478-0.027-0.78-0.082-0.907c-0.055-0.127-0.191-0.191-0.409-0.191
		c-0.176,0-0.309,0.059-0.397,0.175s-0.132,0.292-0.132,0.525c0,0.316,0.022,0.548,0.066,0.696c0.044,0.148,0.176,0.31,0.396,0.486
		c0.221,0.177,0.673,0.434,1.358,0.77c0.913,0.447,1.512,0.867,1.798,1.262c0.285,0.395,0.428,0.968,0.428,1.72
		c0,0.841-0.109,1.475-0.327,1.903c-0.218,0.428-0.583,0.757-1.094,0.988c-0.511,0.23-1.127,0.346-1.848,0.346
		c-0.799,0-1.482-0.124-2.051-0.373c-0.568-0.249-0.958-0.587-1.171-1.012c-0.213-0.426-0.319-1.069-0.319-1.931v-0.498h2.786v0.654
		c0,0.555,0.035,0.915,0.105,1.081c0.07,0.167,0.209,0.249,0.417,0.249c0.223,0,0.378-0.056,0.467-0.167s0.132-0.347,0.132-0.704
		c0-0.493-0.057-0.802-0.171-0.927c-0.119-0.124-0.729-0.492-1.829-1.104c-0.924-0.519-1.487-0.99-1.689-1.413
		c-0.202-0.422-0.304-0.924-0.304-1.505c0-0.825,0.109-1.434,0.327-1.825s0.587-0.694,1.109-0.907s1.127-0.319,1.817-0.319
		c0.685,0,1.267,0.087,1.747,0.261c0.48,0.174,0.849,0.404,1.105,0.689c0.257,0.286,0.412,0.55,0.467,0.794
		c0.054,0.244,0.082,0.625,0.082,1.144V20.787z"/>
	<path fill="#D5A369" d="M38.186,21.386h-2.965v-1.19c0-0.415-0.034-0.697-0.101-0.845c-0.067-0.147-0.192-0.222-0.374-0.222
		s-0.304,0.065-0.366,0.195c-0.062,0.129-0.093,0.42-0.093,0.872v4.872c0,0.368,0.046,0.645,0.14,0.829
		c0.093,0.184,0.23,0.275,0.412,0.275c0.213,0,0.357-0.096,0.432-0.287c0.075-0.192,0.113-0.556,0.113-1.09v-1.229h2.802
		c-0.005,0.824-0.035,1.443-0.089,1.855c-0.055,0.413-0.229,0.836-0.521,1.269c-0.293,0.434-0.676,0.761-1.148,0.981
		c-0.472,0.22-1.056,0.33-1.751,0.33c-0.887,0-1.59-0.151-2.109-0.455s-0.886-0.729-1.101-1.276
		c-0.215-0.547-0.323-1.324-0.323-2.331v-2.934c0-0.876,0.088-1.538,0.265-1.984s0.553-0.844,1.128-1.195
		c0.576-0.35,1.276-0.525,2.102-0.525c0.82,0,1.52,0.174,2.101,0.521c0.581,0.348,0.968,0.786,1.16,1.315
		S38.186,20.416,38.186,21.386z"/>
	<path fill="#D5A369" d="M42.264,17.487l-0.125,1.358c0.457-0.973,1.118-1.487,1.984-1.545v3.635c-0.576,0-0.999,0.078-1.269,0.233
		c-0.27,0.156-0.436,0.373-0.498,0.65c-0.062,0.277-0.093,0.917-0.093,1.918v4.078H39.12V17.487H42.264z"/>
	<path fill="#D5A369" d="M48.062,15.215v1.642h-3.237v-1.642H48.062z M48.062,17.487v10.328h-3.237V17.487H48.062z"/>
	<path fill="#D5A369" d="M52.39,17.487L52.335,18.4c0.28-0.369,0.589-0.645,0.926-0.827c0.337-0.182,0.706-0.273,1.105-0.273
		c0.488,0,0.909,0.131,1.265,0.393c0.355,0.262,0.577,0.564,0.666,0.907c0.088,0.343,0.132,0.924,0.132,1.744v4.35
		c0,0.939-0.056,1.607-0.167,2.004c-0.111,0.397-0.34,0.714-0.685,0.95c-0.345,0.235-0.762,0.354-1.25,0.354
		c-0.389,0-0.75-0.091-1.082-0.272s-0.636-0.452-0.911-0.811v2.367h-3.144V17.487H52.39z M53.284,20.491
		c0-0.638-0.023-1.024-0.07-1.159c-0.047-0.135-0.176-0.203-0.389-0.203c-0.208,0-0.341,0.078-0.401,0.233
		c-0.06,0.156-0.089,0.532-0.089,1.128v4.281c0,0.622,0.031,1.012,0.093,1.167c0.062,0.156,0.197,0.233,0.405,0.233
		c0.202,0,0.328-0.071,0.377-0.214s0.074-0.488,0.074-1.039V20.491z"/>
	<path fill="#D5A369" d="M60.779,16.11v1.626h0.848v1.634h-0.848v5.525c0,0.681,0.035,1.059,0.105,1.137
		c0.07,0.078,0.362,0.117,0.875,0.117v1.665h-1.269c-0.716,0-1.227-0.03-1.533-0.09s-0.576-0.197-0.81-0.412
		s-0.379-0.462-0.436-0.739c-0.057-0.277-0.086-0.93-0.086-1.957v-5.246H56.95v-1.634h0.677V16.11H60.779z"/>
	<path fill="#D5A369" d="M65.558,15.215v1.642H62.32v-1.642H65.558z M65.558,17.487v10.328H62.32V17.487H65.558z"/>
	<path fill="#D5A369" d="M73.8,21.114v2.529c0,0.929-0.047,1.61-0.14,2.043c-0.093,0.434-0.293,0.838-0.599,1.215
		c-0.306,0.376-0.699,0.653-1.179,0.832c-0.48,0.18-1.031,0.269-1.654,0.269c-0.695,0-1.284-0.076-1.767-0.229
		c-0.483-0.152-0.857-0.384-1.125-0.692c-0.268-0.309-0.458-0.683-0.572-1.121s-0.171-1.096-0.171-1.973V21.34
		c0-0.96,0.104-1.709,0.312-2.25c0.208-0.54,0.581-0.973,1.121-1.299c0.54-0.327,1.229-0.491,2.07-0.491
		c0.706,0,1.312,0.105,1.817,0.315s0.896,0.484,1.171,0.821c0.275,0.337,0.463,0.685,0.564,1.042
		C73.749,19.838,73.8,20.382,73.8,21.114z M70.655,20.336c0-0.529-0.028-0.863-0.085-1c-0.057-0.138-0.179-0.207-0.366-0.207
		s-0.312,0.069-0.374,0.207c-0.062,0.137-0.093,0.471-0.093,1v4.662c0,0.488,0.031,0.806,0.093,0.953
		c0.062,0.148,0.184,0.222,0.366,0.222c0.187,0,0.31-0.067,0.37-0.202s0.089-0.425,0.089-0.871V20.336z"/>
	<path fill="#D5A369" d="M78.033,17.487l-0.055,0.952c0.229-0.379,0.508-0.664,0.837-0.854c0.33-0.189,0.71-0.285,1.141-0.285
		c0.539,0,0.98,0.127,1.323,0.381c0.342,0.254,0.562,0.575,0.661,0.961s0.147,1.031,0.147,1.934v7.238h-3.144v-7.152
		c0-0.711-0.023-1.144-0.07-1.3c-0.047-0.155-0.177-0.233-0.39-0.233c-0.223,0-0.362,0.089-0.42,0.269
		c-0.057,0.179-0.086,0.658-0.086,1.436v6.981h-3.144V17.487H78.033z"/>
</g>
<g>
	<polygon fill="#F9D044" points="223.751,-18.659 221.891,-18.659 221.891,-17.729 221.891,3.403 221.891,3.96 223.751,0.986 	"/>
	<polygon fill="#F9D044" points="222.316,4.388 222.874,4.388 244.007,4.388 244.937,4.388 244.937,2.527 225.292,2.527 	"/>
	<path fill="#F9D044" d="M244.828-18.635c-0.66-0.66-1.498-1.066-2.359-1.144c-0.782-0.071-1.504,0.138-2.056,0.591l-1.453,1.393
		L228.824-7.749l-3.901,8.995l8.864-3.766l10.617-10.702l0.968-0.99C246.353-15.399,246.135-17.328,244.828-18.635z M239.552-17.65
		l0.991,0.242L230.48-7.344l-0.991-0.242L239.552-17.65z M228.979-1.044c-0.186-0.369-0.429-0.716-0.737-1.024
		c-0.302-0.301-0.639-0.54-0.998-0.724l1.884-4.345l1.299,0.317l2.492,2.491l0.278,1.491L228.979-1.044z M233.345-4.641
		l-2.416-2.415l10.127-10.127l2.368,2.368l0.021,0.076L233.345-4.641z M245.189-14.879l-0.086-0.311
		c-0.135-0.488-0.521-1.15-0.879-1.508l-1.422-1.422c-0.359-0.359-1.02-0.733-1.504-0.852l-0.183-0.044
		c0.381-0.195,0.823-0.287,1.306-0.244c0.74,0.066,1.463,0.42,2.037,0.994C245.456-17.268,245.721-15.867,245.189-14.879z"/>
</g>
<g>
	<path fill="#F9D044" d="M101.39,19.672c1.202,2.859,3.494,4.415,5.022,4.415c1.501,0,3.606-1.504,4.825-4.326
		c0.296-0.686,0.552-1.561,0.73-2.417c0.199-0.684,0.309-1.553,0.309-2.662c0-2.932-2.626-5.405-5.865-5.405
		c-3.237,0-5.863,2.473-5.863,5.405c0,0.773,0.048,1.43,0.136,1.988C100.804,17.688,101.033,18.833,101.39,19.672z"/>
	<path fill="#F9D044" d="M116.78,28.026c-1.172-1.253-4.468-0.939-6.097-1.8c-0.724,1.355-0.734,3.581-1.936,3.581
		c-0.051,0-0.105-0.004-0.161-0.013c-1.812-0.272-0.906-4.893-2.174-4.893c-1.268,0-0.362,4.621-2.174,4.893
		c-0.056,0.009-0.11,0.013-0.161,0.013c-1.202,0-1.212-2.226-1.936-3.581c-1.628,0.861-4.924,0.547-6.092,1.8
		c-0.635,0.679-0.965,4.884-0.965,6.752h22.656C117.739,32.91,117.412,28.705,116.78,28.026z"/>
</g>
</svg>
